<?xml version="1.0" encoding="UTF-8"?>
<svg xmlns="http://www.w3.org/2000/svg" xmlns:xlink="http://www.w3.org/1999/xlink" width="476" height="244">
  <defs>
    <linearGradient id="h">
      <stop offset="0" stop-color="#FFF" stop-opacity=".897"/>
      <stop offset=".16" stop-color="#e0dddd"/>
      <stop offset="1" stop-color="#555151"/>
    </linearGradient>
    <linearGradient id="g">
      <stop offset="0" stop-color="#FFF" stop-opacity=".8"/>
      <stop offset="1" stop-color="#c0d3e5" stop-opacity=".196"/>
    </linearGradient>
    <linearGradient id="f">
      <stop offset="0" stop-color="#FFF"/>
      <stop offset="1" stop-color="#c0d3e5" stop-opacity=".196"/>
    </linearGradient>
    <linearGradient id="b">
      <stop offset="0" stop-color="#FFF" stop-opacity=".897"/>
      <stop offset=".422" stop-color="#e0dddd"/>
      <stop offset="1" stop-color="#656262"/>
    </linearGradient>
    <linearGradient id="e">
      <stop offset="0" stop-color="#FFF"/>
      <stop offset=".598" stop-color="#454038"/>
      <stop offset="1" stop-color="#19150e"/>
    </linearGradient>
    <linearGradient id="d">
      <stop offset="0" stop-color="#ccbea6"/>
      <stop offset="1" stop-color="#625133" stop-opacity="0"/>
    </linearGradient>
    <linearGradient id="c">
      <stop offset="0" stop-color="#FFF"/>
      <stop offset=".354" stop-color="#454038"/>
      <stop offset="1" stop-color="#19150e"/>
    </linearGradient>
    <linearGradient id="l">
      <stop offset="0" stop-color="#931709"/>
      <stop offset=".471" stop-color="#b82508" stop-opacity=".961"/>
      <stop offset=".598" stop-color="#dd3307" stop-opacity=".925"/>
      <stop offset=".755" stop-color="#e22c06" stop-opacity=".851"/>
      <stop offset=".953" stop-color="orange" stop-opacity=".745"/>
      <stop offset="1" stop-color="#ffad00" stop-opacity=".992"/>
    </linearGradient>
    <linearGradient id="a">
      <stop offset="0" stop-color="#1d1120"/>
      <stop offset="1" stop-color="#ebe6ec" stop-opacity=".841"/>
    </linearGradient>
    <linearGradient id="j">
      <stop offset="0" stop-color="#fefbfb"/>
      <stop offset=".894" stop-color="#787878" stop-opacity=".502"/>
      <stop offset="1" stop-color="#4d4d4d"/>
    </linearGradient>
    <linearGradient id="k">
      <stop offset="0" stop-color="#081e1e" stop-opacity=".441"/>
      <stop offset="1" stop-color="#7a8a8a"/>
    </linearGradient>
    <linearGradient id="i">
      <stop offset="0" stop-color="#647172"/>
      <stop offset="1" stop-color="#a0bcbd" stop-opacity="0"/>
    </linearGradient>
    <filter id="s" color-interpolation-filters="sRGB">
      <feGaussianBlur stdDeviation="8.364"/>
    </filter>
    <filter id="q" width="4.213" height="1.123" x="-1.607" y="-.061" color-interpolation-filters="sRGB">
      <feGaussianBlur stdDeviation="8.661"/>
    </filter>
    <filter id="u" width="1.2" height="1.2" x="-.1" y="-.1" color-interpolation-filters="sRGB">
      <feGaussianBlur stdDeviation="2"/>
    </filter>
    <filter id="v" width="1.2" height="1.2" x="-.1" y="-.1" color-interpolation-filters="sRGB">
      <feGaussianBlur stdDeviation=".9"/>
    </filter>
    <filter id="U" color-interpolation-filters="sRGB">
      <feGaussianBlur stdDeviation="3.868"/>
    </filter>
    <filter id="S" color-interpolation-filters="sRGB">
      <feGaussianBlur stdDeviation="1.687"/>
    </filter>
    <linearGradient id="z" x1="1147.3" x2="1060.9" y1="605.28" y2="305.68" gradientTransform="matrix(.95402 0 0 .97946 -1098.462 344.568)" gradientUnits="userSpaceOnUse" xlink:href="#a"/>
    <linearGradient id="H" x1="1147.3" x2="1060.9" y1="605.28" y2="305.68" gradientTransform="matrix(.95402 0 0 .97946 -1099.002 4.751)" gradientUnits="userSpaceOnUse" xlink:href="#a"/>
    <linearGradient id="I" x1="976.82" x2="1258.5" y1="276.12" y2="720.6" gradientTransform="matrix(.95402 0 0 .97946 -1099.002 4.751)" gradientUnits="userSpaceOnUse" xlink:href="#b"/>
    <linearGradient id="J" x1="1147.3" x2="1060.9" y1="605.28" y2="305.68" gradientTransform="translate(-745.587 182.997) scale(.97946)" gradientUnits="userSpaceOnUse" xlink:href="#a"/>
    <linearGradient id="V" x1="331.11" x2="372.53" y1="712.42" y2="743.76" gradientUnits="userSpaceOnUse" xlink:href="#c"/>
    <linearGradient id="W" x1="381.34" x2="390.85" y1="747.55" y2="747.55" gradientTransform="matrix(.9739 0 0 .99594 423.534 -526.422)" gradientUnits="userSpaceOnUse" xlink:href="#d"/>
    <linearGradient id="X" x1="331.11" x2="372.53" y1="712.42" y2="743.76" gradientUnits="userSpaceOnUse" xlink:href="#e"/>
    <linearGradient id="Y" x1="384.99" x2="390.85" y1="747.14" y2="747.55" gradientTransform="matrix(.9739 0 0 .99594 423.534 -526.422)" gradientUnits="userSpaceOnUse" xlink:href="#d"/>
    <linearGradient id="ay" x1="237.71" x2="288.74" y1="289.86" y2="344.43" gradientTransform="translate(-1185.05 -571.56)" gradientUnits="userSpaceOnUse" xlink:href="#f"/>
    <linearGradient id="az" x1="-214.5" x2="-271.17" y1="170.74" y2="121.4" gradientTransform="translate(-473.762 -1.414)" gradientUnits="userSpaceOnUse" xlink:href="#g"/>
    <radialGradient id="am" cx="-820.27" cy="-66.353" r="103.02" gradientTransform="matrix(.19703 0 0 .34537 301.028 351.224)" gradientUnits="userSpaceOnUse" xlink:href="#h"/>
    <radialGradient id="al" cx="-831.73" cy="-73.753" r="108" gradientTransform="matrix(.19703 0 0 .34004 300.634 351.929)" gradientUnits="userSpaceOnUse" xlink:href="#h"/>
    <radialGradient id="ak" cx="-824.82" cy="-63.561" r="8.187" gradientTransform="matrix(.19703 0 0 4.54088 300.634 617.481)" gradientUnits="userSpaceOnUse" xlink:href="#h"/>
    <linearGradient id="aj" x1="-680.48" x2="-521.71" y1="930.52" y2="1219.7" gradientTransform="translate(243.146 95.797) scale(.19703)" gradientUnits="userSpaceOnUse" xlink:href="#h"/>
    <radialGradient id="ai" cx="-823.52" cy="-59.37" r="102.38" gradientTransform="matrix(.19703 0 0 .35057 300.634 350.497)" gradientUnits="userSpaceOnUse" xlink:href="#h"/>
    <radialGradient id="ah" cx="-822.07" cy="-55.121" r="106.26" gradientTransform="matrix(.19703 0 0 .33903 300.634 349.209)" gradientUnits="userSpaceOnUse" xlink:href="#h"/>
    <radialGradient id="ag" cx="-816.34" cy="-59.112" r="100.8" gradientTransform="matrix(.19703 0 0 .34257 300.634 349.985)" gradientUnits="userSpaceOnUse" xlink:href="#h"/>
    <linearGradient id="af" x1="-512.93" x2="-332" y1="522.7" y2="819.59" gradientTransform="translate(214.402 181.525) scale(.19703)" gradientUnits="userSpaceOnUse" xlink:href="#h"/>
    <linearGradient id="ae" x1="-1030.3" x2="-832.93" y1="500.09" y2="868.4" gradientTransform="translate(311.728 184.046) scale(.19703)" gradientUnits="userSpaceOnUse" xlink:href="#h"/>
    <linearGradient id="ad" x1="-944.78" x2="-776.19" y1="927.98" y2="1224.9" gradientTransform="translate(294.078 96.301) scale(.19703)" gradientUnits="userSpaceOnUse" xlink:href="#h"/>
    <linearGradient id="ac" x1="478.23" x2="220.65" y1="766.21" y2="209.62" gradientTransform="translate(70.552 231.055) scale(.19703)" gradientUnits="userSpaceOnUse" xlink:href="#i"/>
    <radialGradient id="ab" cx="349" cy="498.5" r="131.11" gradientTransform="matrix(.00776 -.6432 .18452 .00223 44.625 552.644)" gradientUnits="userSpaceOnUse" xlink:href="#j"/>
    <linearGradient id="aa" x1="410.4" x2="225.82" y1="613.99" y2="282.66" gradientTransform="translate(70.552 231.055) scale(.19703)" gradientUnits="userSpaceOnUse" xlink:href="#k"/>
    <radialGradient id="r" cx="627.18" cy="503.78" r="109.15" gradientTransform="matrix(1.34808 -.00892 .01423 2.14957 -504.087 -574.508)" gradientUnits="userSpaceOnUse" xlink:href="#l"/>
    <linearGradient id="p" x1="478.23" x2="220.65" y1="766.21" y2="209.62" gradientTransform="translate(153.874 228.303) scale(.19703)" gradientUnits="userSpaceOnUse" xlink:href="#i"/>
    <radialGradient id="o" cx="349" cy="498.5" r="131.11" gradientTransform="matrix(.00776 -.6432 .18452 .00223 127.948 549.892)" gradientUnits="userSpaceOnUse" xlink:href="#j"/>
    <linearGradient id="n" x1="410.4" x2="225.82" y1="613.99" y2="282.66" gradientTransform="translate(153.874 228.303) scale(.19703)" gradientUnits="userSpaceOnUse" xlink:href="#k"/>
    <linearGradient id="an" x1="1147.3" x2="1060.9" y1="605.28" y2="305.68" gradientTransform="matrix(.95402 0 0 .97946 -1098.462 344.568)" gradientUnits="userSpaceOnUse" xlink:href="#a"/>
    <linearGradient id="ao" x1="1147.3" x2="1060.9" y1="605.28" y2="305.68" gradientTransform="matrix(.95402 0 0 .97946 -1099.002 4.751)" gradientUnits="userSpaceOnUse" xlink:href="#a"/>
    <linearGradient id="ap" x1="1147.3" x2="1060.9" y1="605.28" y2="305.68" gradientUnits="userSpaceOnUse" xlink:href="#a"/>
    <linearGradient id="aq" x1="1147.3" x2="1060.9" y1="605.28" y2="305.68" gradientTransform="matrix(.95402 0 0 .97946 -1099.002 4.751)" gradientUnits="userSpaceOnUse" xlink:href="#a"/>
    <linearGradient id="ar" x1="1147.3" x2="1060.9" y1="605.28" y2="305.68" gradientTransform="matrix(.95402 0 0 .97946 -1099.002 4.751)" gradientUnits="userSpaceOnUse" xlink:href="#a"/>
    <linearGradient id="as" x1="976.82" x2="1258.5" y1="276.12" y2="720.6" gradientTransform="matrix(.95402 0 0 .97946 -1099.002 4.751)" gradientUnits="userSpaceOnUse" xlink:href="#b"/>
    <linearGradient id="at" x1="1147.3" x2="1060.9" y1="605.28" y2="305.68" gradientTransform="translate(-745.587 182.997) scale(.97946)" gradientUnits="userSpaceOnUse" xlink:href="#a"/>
    <linearGradient id="au" x1="331.11" x2="372.53" y1="712.42" y2="743.76" gradientUnits="userSpaceOnUse" xlink:href="#c"/>
    <linearGradient id="av" x1="381.34" x2="390.85" y1="747.55" y2="747.55" gradientTransform="matrix(.9739 0 0 .99594 423.534 -526.422)" gradientUnits="userSpaceOnUse" xlink:href="#d"/>
    <linearGradient id="aw" x1="331.11" x2="372.53" y1="712.42" y2="743.76" gradientUnits="userSpaceOnUse" xlink:href="#e"/>
    <linearGradient id="ax" x1="384.99" x2="390.85" y1="747.14" y2="747.55" gradientTransform="matrix(.9739 0 0 .99594 423.534 -526.422)" gradientUnits="userSpaceOnUse" xlink:href="#d"/>
    <linearGradient id="x" x1="1147.3" x2="1060.9" y1="605.28" y2="305.68" gradientTransform="matrix(.95402 0 0 .97946 -1098.462 344.568)" gradientUnits="userSpaceOnUse" xlink:href="#a"/>
    <linearGradient id="y" x1="1147.3" x2="1060.9" y1="605.28" y2="305.68" gradientTransform="matrix(.95402 0 0 .97946 -1098.462 344.568)" gradientUnits="userSpaceOnUse" xlink:href="#a"/>
    <linearGradient id="A" x1="1147.3" x2="1060.9" y1="605.28" y2="305.68" gradientTransform="matrix(.95402 0 0 .97946 -1099.002 4.751)" gradientUnits="userSpaceOnUse" xlink:href="#a"/>
    <linearGradient id="B" x1="1147.3" x2="1060.9" y1="605.28" y2="305.68" gradientTransform="matrix(.95402 0 0 .97946 -1099.002 4.751)" gradientUnits="userSpaceOnUse" xlink:href="#a"/>
    <linearGradient id="C" x1="1147.3" x2="1060.9" y1="605.28" y2="305.68" gradientTransform="matrix(.95402 0 0 .97946 -1099.002 4.751)" gradientUnits="userSpaceOnUse" xlink:href="#a"/>
    <linearGradient id="D" x1="1147.3" x2="1060.9" y1="605.28" y2="305.68" gradientTransform="matrix(.95402 0 0 .97946 -1099.002 4.751)" gradientUnits="userSpaceOnUse" xlink:href="#a"/>
    <linearGradient id="E" x1="1147.3" x2="1060.9" y1="605.28" y2="305.68" gradientTransform="matrix(.95402 0 0 .97946 -1099.002 4.751)" gradientUnits="userSpaceOnUse" xlink:href="#a"/>
    <linearGradient id="F" x1="1147.3" x2="1060.9" y1="605.28" y2="305.68" gradientUnits="userSpaceOnUse" xlink:href="#a"/>
    <linearGradient id="G" x1="1147.3" x2="1060.9" y1="605.28" y2="305.68" gradientTransform="matrix(.95402 0 0 .97946 -1099.002 4.751)" gradientUnits="userSpaceOnUse" xlink:href="#a"/>
    <linearGradient id="K" x1="1147.3" x2="1060.9" y1="605.28" y2="305.68" gradientTransform="translate(-745.587 182.997) scale(.97946)" gradientUnits="userSpaceOnUse" xlink:href="#a"/>
    <linearGradient id="L" x1="1147.3" x2="1060.9" y1="605.28" y2="305.68" gradientTransform="translate(-745.587 182.997) scale(.97946)" gradientUnits="userSpaceOnUse" xlink:href="#a"/>
    <linearGradient id="M" x1="1147.3" x2="1060.9" y1="605.28" y2="305.68" gradientTransform="translate(-745.587 182.997) scale(.97946)" gradientUnits="userSpaceOnUse" xlink:href="#a"/>
    <linearGradient id="N" x1="1147.3" x2="1060.9" y1="605.28" y2="305.68" gradientTransform="translate(-745.587 182.997) scale(.97946)" gradientUnits="userSpaceOnUse" xlink:href="#a"/>
    <linearGradient id="O" x1="1147.3" x2="1060.9" y1="605.28" y2="305.68" gradientTransform="translate(-745.587 182.997) scale(.97946)" gradientUnits="userSpaceOnUse" xlink:href="#a"/>
    <linearGradient id="P" x1="1147.3" x2="1060.9" y1="605.28" y2="305.68" gradientTransform="translate(-745.587 182.997) scale(.97946)" gradientUnits="userSpaceOnUse" xlink:href="#a"/>
    <linearGradient id="Q" x1="1147.3" x2="1060.9" y1="605.28" y2="305.68" gradientTransform="translate(-745.587 182.997) scale(.97946)" gradientUnits="userSpaceOnUse" xlink:href="#a"/>
    <linearGradient id="R" x1="-214.5" x2="-271.17" y1="170.74" y2="121.4" gradientTransform="translate(1910.902 -23.064)" gradientUnits="userSpaceOnUse" xlink:href="#g"/>
    <linearGradient id="T" x1="237.71" x2="288.74" y1="289.86" y2="344.43" gradientTransform="translate(1204.028 -600.772)" gradientUnits="userSpaceOnUse" xlink:href="#f"/>
  </defs>
  <g>
    <g transform="translate(-107.309 -267.457)">
      <g id="t">
        <use transform="translate(-.14 128.71)" xlink:href="#m"/>
        <g id="m">
          <path fill="url(#n)" d="M216.42 379.1c-.33-.039-1.456-.167-2.501-.286-5.549-.628-10.486-2.43-13.714-5.005-2.337-1.863-5.453-5.68-5.814-7.118-.06-.244-.081-18.705-.045-41.026l.065-40.582.457-.994c1.04-2.263 3.622-5.031 5.983-6.416 7.417-4.352 18.974-6.256 29.223-4.815 7.028.988 14.123 3.754 17.43 6.794.713.657 2.8 3.315 3.21 4.087.565 1.067.63 6.137.576 44.156l-.057 38.802-.564 1.117c-1.075 2.127-4.582 5.725-7.249 7.44-3.126 2.008-7.768 3.278-13.796 3.773-2.213.182-11.82.235-13.205.073z"/>
          <path fill="url(#o)" stroke="#3a4d53" stroke-width=".589" d="M218.85 375.45l-21.748-10.25.059-77.983 21.809-9.769h7.48l21.728 9.675-.047 78.488c-6.243 3.125-15.945 7.221-22.352 9.984l-6.928-.145zm27.819-10.675l.15-76.07-20.455-9.883-7.223-.02-20.645 10.05.099 75.599 20.404 9.575 6.719.076 20.95-9.328z"/>
          <path fill="url(#p)" stroke="#ebe5e5" stroke-opacity=".297" stroke-width=".597" d="M217.35 381.31c-10-.547-16.167-2.549-20.799-6.75-1.63-1.478-3.426-3.603-4.073-4.818l-.607-1.138.051-42.87.051-42.868.697-1.173c1.032-1.737 3.997-4.66 5.672-5.593 9.715-5.407 23.886-7.09 36.721-4.362 4.98 1.058 10.401 3.14 13.335 5.12 1.594 1.076 3.677 3.449 4.646 5.294l.728 1.385-.002 42.365-.002 42.365-.497 1.068c-.608 1.305-1.355 2.298-3.065 4.074-4.338 4.505-9.584 6.677-18.328 7.59-3.42.358-10.793.515-14.529.311zm13.733-2.299c7.887-.87 12.136-2.655 16.321-6.855 2.21-2.218 3.333-3.755 3.895-5.33.22-.617.269-7.806.276-40.9.01-44.992.162-40.576-1.483-43.143-1.805-2.817-3.982-4.623-7.563-6.272-8.843-4.074-20-5.16-30.425-2.96-4.618.973-9.46 2.83-12.303 4.719-2.072 1.376-4.77 4.607-5.446 6.522-.253.717-.292 6.248-.292 41.278v40.451l.687 1.37c.378.754 1.391 2.177 2.252 3.162 4.78 5.475 10.959 7.792 22.239 8.339 2.48.12 9.287-.099 11.842-.38z"/>
          <path fill="#f8ae1b" stroke="#ff2124" stroke-width="2.699" d="M120.77 522.93a6.47 169.29 0 1 1-12.939 0 6.47 169.29 0 1 1 12.939 0z" filter="url(#q)" transform="matrix(.1188 0 0 .1978 183 224.923)"/>
          <path fill="#140b0b" stroke="#383838" stroke-width=".197" d="M225.66 373.65l20.612-9.106.1-75.583-20.116-9.74-6.99-.012-20.365 9.877.075 75.11 20.575 9.354 6.108.1z"/>
          <path fill="url(#r)" d="M362.42 725.29l94.393-42.902.456-356.11-92.114-45.891-32.015-.059-93.254 46.536.341 353.88 94.222 44.074 27.97.47z" filter="url(#s)" opacity=".85" transform="matrix(.2062 0 0 .20695 150.677 222.868)"/>
          <path fill="#f8ae1b" stroke="#ff2124" stroke-width="2.699" d="M120.77 522.93a6.47 169.29 0 1 1-12.939 0 6.47 169.29 0 1 1 12.939 0z" filter="url(#q)" transform="matrix(.1188 0 0 .1978 235.476 224.71)"/>
        </g>
      </g>
      <use transform="translate(85.02 1.18)" xlink:href="#t"/>
      <use transform="translate(165.81 -1.63)" xlink:href="#t"/>
      <use transform="translate(245.13 -1.86)" xlink:href="#t"/>
      <use transform="translate(328.18 -.38)" xlink:href="#t"/>
    </g>
    <g fill="#722">
      <path d="M98.531 41.143c-1.96.1 0 .22-2.528.249-.535-14.331 11.388-19.11 20.27-19.081 8.884.029 19.186 2.772 19.065 18.302-.122 15.53-13.157 18-18.39 20.287-6.19 2.751-10.161 6.21-14.331 11.219-4.17 5.009-4.88 18.863-4.88 18.863l37.84.295-.09 2.149s-30.653.185-40.509-.176c.386-11.285 1.024-12.487 2.56-16.88 1.908-5.748 8.118-13.656 18.462-17.97 5.244-2.187 16.673-5.864 16.719-17.693.046-11.828-8.452-15.824-16.446-15.603-7.994.221-17.942 6.136-17.742 16.037z"/>
      <path d="M276.826 223.213c7.137-.23 21.69-15.815 24.01-33.329.968-7.232 4.227-38.748-18.595-38.721-14.267.624-21.868 9.565-22.537 22.5-.47 13.924 11.741 20.723 20.606 20.655 8.866-.068 18.174-6.993 18.174-6.993l.181-3.067s-10.277 8.172-18.54 7.302c-8.262-.87-17.7-4.809-18.152-17.955.537-14.333 10.352-20.234 20.291-20.327 20.203.62 16.934 28.467 16.212 35.922-1.643 15.128-16.076 30.948-20.972 31.242-.236 1.386-.316.83-.68 2.77z"/>
      <path d="M360.421 222.613c0-.778.356-.563.379-2.364 15.64-.711 17.87-22.383 17.902-34.053.032-11.67-4.911-32.775-17.82-32.479-12.91.296-17.852 21.663-18.01 33.163-.159 11.501 4.177 33.298 17.558 33.458.024 1.184.09-.396.149 2.494-11.966-.493-19.839-13.428-19.885-35.937-.046-22.509 9.697-35.47 20.277-35.84 10.58-.368 19.8 14.266 20.062 35.03.262 20.764-7.002 36.76-20.611 36.527z"/>
      <path d="M291.261 93.673h-2.482V26.349L263.926 78.47l38.712-.093v2.53l-42.56-.093 28.37-60.59h2.91l-.097 73.45z"/>
      <path d="M377.681 24.083l-34.213-.208-3.123 35.262c6.678-1.015 12.902-2.169 20.136-2.457 9.866-.009 17.941 7.542 18.007 17.712.066 10.17-7.862 19.311-18.164 19.66-8.23-.454-18.422-5.512-16.607-20.072-1.757 0-1.224-.502-2.709-.489-2.893 14.53 7.492 22.766 19.151 22.861 11.66.095 20.828-9.076 20.878-21.836.05-12.76-10.674-20.465-20.367-20.326-9.693.14-17.458 1.627-17.458 1.627l2.549-29.37 31.727.396.326-2.233-.132-.527z"/>
      <path d="M183.061 27.513l-.01 2.7h33.738l-16.066 29.009s17.317 1.368 18.171 16.67c-.498 10.017-3.507 19.001-16.443 19.993-15.936 1.43-17.986-10.945-16.254-17.786-.588-.111-2.656-1.21-3.246-1.021-1.586 6.787.665 22.32 19.558 21.896 17.993-2.142 19.48-18.044 19.397-22.87-.841-16.142-17.022-19.366-17.022-19.366l13.714-24.866.076-4.062-35.612-.298z"/>
      <path d="M447.461 24.573c-7.136.23-21.69 15.815-24.01 33.329-.967 7.232-4.226 38.748 18.595 38.721 14.267-.624 21.868-9.565 22.537-22.5.472-13.924-11.74-20.723-20.606-20.655-8.865.068-18.174 6.993-18.174 6.993l-.18 3.067s10.277-8.172 18.54-7.302c8.262.87 17.7 4.809 18.152 17.955-.537 14.332-10.352 20.234-20.291 20.327-20.203-.62-16.934-28.467-16.212-35.923 1.643-15.128 16.076-30.948 20.972-31.242.236-1.386.316-.83.68-2.77z"/>
      <path d="M95.971 155.233h39.723l-.003 3.505-22.374 65.56-2.328-.482 22.537-65.98-37.487.132-.069-2.735z"/>
      <path d="M200.676 226.593c.069-1.902.089-.403.123-2.902-10.592.254-17.292-8.819-17.573-17.4-.275-8.393 6.36-14.36 16.506-16.937 3.214-1.086 18.914-3.017 19.337-16.886.114-8.947-5.25-18.297-17.334-17.963-12.083.333-17.97 8.908-17.628 18.344.462 11.398 10.153 13.784 17.25 16.097 3.97 2.347 17.045 1.985 17.717 16.616-.02 10.622-10.154 18.699-18.018 18.195.018 2.417-.132.04.032 2.823 9.376.216 20.619-7.713 20.63-21.112.103-17.5-22.37-19.84-22.37-19.84s-11.792-2.445-12.091-13.028c-.233-6.31 3.64-15.022 14.748-15.075 11.4.268 14.068 8.938 14.007 15.044-1.32 10.334-12.077 12.655-14.685 13.37-5.127 1.858-20.223 4.214-20.895 20.052.964 13.368 9.695 20.38 20.246 20.602z"/>
      <path d="M441.861 147.783v74.353h3.227v-74.353z"/>
    </g>
    <g fill="#fe72dc" stroke="#fe72dc" filter="url(#u)" transform="translate(-107.309 -267.457)">
      <path stroke-width="1.519" d="M220.557 286.278v77.775h5.092v-77.775z"/>
      <path stroke-width="1.182" d="M387.81 490.62c.069-1.901.089-1.708.123-4.207-10.592.254-15.987-8.26-16.268-16.84-.275-8.393 5.615-13.614 15.76-16.192 3.214-1.085 19.193-3.855 19.617-17.724.113-8.947-6.09-18.856-18.173-18.523-12.083.334-18.623 9.467-18.28 18.903.461 11.398 9.873 14.53 16.968 16.843 3.97 2.348 17.046 1.147 17.718 15.778-.02 10.622-9.222 18.233-17.086 17.729.018 2.418-.132 2.462.032 4.314 9.376.216 21.644-8.552 21.655-21.952.104-17.499-22.928-20.306-22.928-20.306s-11.14-2.072-11.439-12.656c-.232-6.31 2.521-13.717 13.63-13.77 11.4.268 13.508 7.54 13.448 13.645-1.32 10.334-11.612 12.469-14.22 13.185-5.126 1.857-20.688 4.866-21.36 20.702.312 13.647 10.255 20.848 20.804 21.069z"/>
      <path stroke-width="1.182" d="M462.343 491.792c10.629.45 24.113-17.025 26.434-34.54.968-7.231 3.649-39.489-19.173-39.461-14.267.624-23.03 10.244-23.7 23.179-.472 16.155 12.807 21.79 21.673 21.723 8.866-.068 17.318-6.105 17.318-6.105l.184-5.694s-9.133 7.874-17.59 7.004c-8.456-.87-16.695-3.187-17.147-16.334.537-14.332 9.251-18.993 19.19-19.086 18.951.555 15.926 25.97 15.006 35.006-1.446 15.985-15.366 29.138-21.418 30.207-.236 1.387-.413 2.161-.776 4.101z"/>
      <path stroke-width="5.896" d="M612.63 362.01l172.9-1.615-82.879 143.71s89.342 2.938 93.674 77.926c-2.531 49.086-15.354 86.297-79.519 92.94-80.882 7.01-83.486-49.545-77.036-80.485-2.989-.545-18.97-8.915-22.969-9.927-11.06 38.102 4.711 115.83 100.6 113.75 86.639-4.68 103.21-78.374 103.8-113.04-2.264-80.714-83.049-100.39-83.049-100.39l66.595-117.97.05-23.777-192.11-1.138-.051 20.012z" transform="matrix(.19703 0 0 .20407 248.299 219.787)"/>
      <path stroke-width="1.182" d="M478.053 363.062l-5.064.004 1.134-67.07-23.019 49.704 39.568-.478.143 5.22-46.826-.36 29.533-62.417 4.36-.127.171 75.523z"/>
      <path stroke-width="6" d="M703.2 403.13c-10.498.508-6.381.59-24.173.73-2.332-84.432 65.743-106.03 113.3-105.88 47.552.147 109.61 17.26 108.96 96.079-.65 78.819-74.152 98.27-102.16 109.88-33.137 13.966-51.203 29.923-73.524 55.345-22.321 25.423-25.587 86.165-25.587 86.165l202.01-.63-1.541 20.48s-173.66 1.472-226.41-.36c2.069-57.273 3.885-67.095 12.107-89.397 10.213-29.163 48.244-74.618 103.62-96.512 28.072-11.1 84.46-24.447 84.708-84.48.249-60.033-38.858-72.864-81.65-71.743-42.792 1.12-90.723 30.076-89.654 80.328z" transform="matrix(.18682 0 0 .19703 160.591 229.947)"/>
      <path stroke-width="1.182" d="M532.184 291.745l-3.123 36.945c6.678-1.015 12.902-2.492 20.137-2.78 9.866-.01 17.941 6.959 18.007 17.128.066 10.17-7.863 18.126-18.164 18.473-8.23-.453-16.17-5.18-14.355-19.74-1.757-.454-3.749-.838-5.234-1.018-2.892 14.528 7.76 24.954 19.42 25.05 11.659.095 22.871-8.844 22.727-22.639-.144-13.796-10.703-21.84-22.081-21.248-11.378.593-15.817 1.5-15.817 1.5l2.484-27.008 32.654.067.195-4.717-36.85-.012z"/>
      <path stroke-width="1.182" d="M228.412 419.743c-10.629-.45-24.113 17.025-26.434 34.54-.967 7.232-3.648 39.49 19.173 39.462 14.267-.624 23.03-10.244 23.7-23.18.472-16.154-12.807-21.789-21.673-21.722-8.866.068-17.317 6.105-17.317 6.105l-.185 5.694s9.133-7.874 17.59-7.004c8.457.87 16.695 3.187 17.147 16.333-.537 14.333-9.25 18.994-19.19 19.087-18.95-.555-15.926-25.97-15.006-35.007 1.446-15.984 15.366-29.137 21.418-30.207.236-1.386.413-2.16.776-4.1z"/>
      <path stroke-width="1.182" d="M285.749 422.984h44.336l-.662 3.768-23.43 68.459-5.227-.35 24.383-68.485-39.068.791 2.435-3.92-2.767-.264z"/>
      <path stroke-width="1.197" d="M549.916 483.761c15.64-.711 17.124-21.59 17.156-33.26.033-11.67-3.978-31.563-16.887-31.268-12.91.296-16.361 20.73-16.52 32.23-.158 11.501 2.92 32.227 16.3 32.387.024.625.09 2.912.056 3.799-11.966-.494-20.444-13.94-20.491-36.45-.046-22.508 10.256-36.03 20.836-36.399 10.58-.369 20.732 15.012 20.994 35.775.262 20.763-7.794 37.32-21.404 37.085-.068-1.352.01-4.488-.04-3.9z"/>
    </g>
    <g fill="#fbea46" stroke="#ffa300" filter="url(#v)" transform="translate(-107.309 -267.457)">
      <path stroke-width="1.182" d="M221.554 288.054v74.354h3.226v-74.354z"/>
      <path stroke-width="1.182" d="M387.988 490.155c.068-1.901.088-.403.123-2.902-10.592.254-17.292-8.819-17.574-17.4-.275-8.392 6.36-14.36 16.506-16.936 3.214-1.086 18.914-3.018 19.337-16.886.114-8.947-5.25-18.297-17.334-17.964-12.083.334-17.97 8.908-17.628 18.344.462 11.398 10.153 13.784 17.248 16.097 3.97 2.348 17.046 1.985 17.718 16.617-.02 10.622-10.154 18.7-18.018 18.195.018 2.417-.132.039.032 2.822 9.377.217 20.62-7.712 20.63-21.112.103-17.499-22.37-19.839-22.37-19.839s-11.792-2.445-12.09-13.028c-.233-6.31 3.639-15.023 14.747-15.076 11.4.27 14.067 8.938 14.007 15.044-1.319 10.334-12.077 12.655-14.685 13.371-5.127 1.857-20.224 4.213-20.895 20.05.964 13.368 9.695 20.381 20.247 20.602z"/>
      <path stroke-width="1.182" d="M463.688 490.652c7.137-.23 21.69-15.815 24.01-33.33.968-7.232 4.227-38.748-18.594-38.72-14.267.623-21.868 9.564-22.536 22.5-.471 13.925 11.74 20.724 20.605 20.655 8.866-.068 18.174-6.992 18.174-6.992l.181-3.068s-10.277 8.172-18.54 7.302c-8.262-.87-17.7-4.808-18.151-17.955.537-14.332 10.352-20.235 20.29-20.327 20.204.62 16.935 28.467 16.213 35.922-1.644 15.129-16.076 30.948-20.973 31.242-.236 1.386-.316.83-.68 2.77z"/>
      <path stroke-width="5.896" d="M622.72 345.87l-.051 13.231h171.23l-81.541 142.16s87.89 6.702 92.22 81.69c-2.53 49.085-17.798 93.11-83.45 97.973-80.882 7.009-91.282-53.633-82.492-87.157-2.989-.544-13.481-5.93-16.476-5.004-8.05 33.259 3.373 109.38 99.262 107.3 91.32-10.493 98.866-88.421 98.444-112.07-4.27-79.1-86.393-94.9-86.393-94.9l69.605-121.85.384-19.902-180.74-1.461z" transform="matrix(.19703 0 0 .20407 247.651 219.535)"/>
      <path stroke-width="1.182" d="M476.95 361.718h-2.482v-67.324l-24.854 52.12 38.713-.092v2.53l-42.56-.093 28.37-60.59h2.91l-.097 73.449z"/>
      <path stroke-width="6" d="M697.88 396.92c-10.498.508 0 1.121-13.537 1.262-2.864-72.732 60.956-96.988 108.51-96.84 47.552.147 102.7 14.069 102.05 92.888-.65 78.819-70.429 91.357-98.437 102.96-33.137 13.966-54.394 31.518-76.715 56.94-22.321 25.423-26.119 95.738-26.119 95.738l202.55 1.498-.477 10.908s-164.08.939-216.84-.892c2.069-57.274 5.48-63.373 13.702-85.675 10.213-29.163 43.458-69.3 98.83-91.193 28.072-11.099 89.246-29.765 89.495-89.798.249-60.033-45.24-80.31-88.031-79.189-42.792 1.12-96.041 31.14-94.972 81.392z" transform="matrix(.18682 0 0 .19703 160.591 229.947)"/>
      <path stroke-width="1.182" d="M567.335 292.6l-34.213-.208L530 327.654c6.678-1.014 12.902-2.168 20.137-2.456 9.866-.01 17.94 7.542 18.007 17.712.066 10.17-7.863 19.31-18.164 19.658-8.23-.453-18.422-5.51-16.607-20.071-1.757 0-1.224-.503-2.71-.489-2.892 14.529 7.493 22.765 19.152 22.862 11.659.095 20.828-9.076 20.877-21.835.05-12.76-10.674-20.466-20.367-20.326-9.693.139-17.458 1.626-17.458 1.626l2.549-29.37 31.726.396.326-2.233-.132-.528z"/>
      <path stroke-width="1.182" d="M226.757 420.545c-7.137.23-21.69 15.816-24.01 33.33-.968 7.232-4.227 38.749 18.594 38.721 14.267-.624 21.868-9.565 22.536-22.501.472-13.924-11.74-20.724-20.605-20.655-8.866.068-18.174 6.993-18.174 6.993l-.181 3.067s10.277-8.172 18.54-7.302c8.262.87 17.7 4.809 18.151 17.955-.537 14.333-10.352 20.235-20.29 20.328-20.204-.62-16.935-28.467-16.212-35.923 1.643-15.128 16.075-30.948 20.972-31.241.236-1.387.316-.83.68-2.77z"/>
      <path stroke-width="1.182" d="M288.27 423.116h39.724l-.003 3.505-22.373 65.56-2.328-.482 22.537-65.98-37.488.132-.069-2.735z"/>
      <path stroke-width="1.182" d="M549.896 487.034c0-.778.356-.563.378-2.363 15.64-.712 17.87-22.383 17.903-34.054.032-11.67-4.911-32.774-17.82-32.478-12.91.296-17.852 21.661-18.01 33.162-.159 11.5 4.177 33.299 17.557 33.458.024 1.184.09-.396.15 2.494-11.966-.493-19.84-13.427-19.885-35.936-.046-22.51 9.697-35.472 20.277-35.84 10.58-.37 19.8 14.266 20.061 35.03.262 20.763-7.002 36.76-20.611 36.527z"/>
    </g>
    <g transform="translate(-107.309 -267.457)">
      <use transform="translate(327.915 -.745)" xlink:href="#w"/>
      <use transform="translate(245.01 -2.3)" xlink:href="#w"/>
      <use transform="translate(165.827 -2.063)" xlink:href="#w"/>
      <use transform="translate(85.268 .741)" xlink:href="#w"/>
      <g>
        <g id="w">
          <g id="Z">
            <g>
              <path fill="none" stroke="url(#x)" stroke-width="4" d="M-74.399 718.69l3.769-8.142 18.722-.06 9.412 16.615" transform="translate(229.315 229.16) scale(.19703)"/>
              <path fill="none" stroke="url(#y)" stroke-width="4" d="M-42.471 726.7l18.722-.06" transform="translate(229.315 229.16) scale(.19703)"/>
              <path fill="none" stroke="url(#z)" stroke-width="4" d="M-23.621 726.82l9.31-16.676 18.722-.06 4.473 8.453" transform="translate(229.315 229.16) scale(.19703)"/>
              <path fill="none" stroke="url(#A)" stroke-width="4" d="M80.65 329.8H69.206" transform="translate(229.315 229.16) scale(.19703)"/>
              <path fill="none" stroke="url(#B)" stroke-width="4" d="M80.48 362.95H69.036" transform="translate(229.315 229.16) scale(.19703)"/>
              <path fill="none" stroke="url(#C)" stroke-width="4" d="M80.906 396.35H69.462" transform="translate(229.315 229.16) scale(.19703)"/>
              <path fill="none" stroke="#847f77" stroke-width=".788" d="M245.105 313.613h-2.255"/>
              <path fill="#bebebe" fill-opacity=".846" stroke="#d8d8d8" stroke-width=".788" d="M202.29 326.778h-2.255"/>
              <path fill="#bebebe" fill-opacity=".846" stroke="#d8d8d8" stroke-width=".788" d="M202.341 320.369h-2.254"/>
              <path fill="none" stroke="url(#D)" stroke-width="4" d="M-136.99 429.24h-11.444" transform="translate(229.315 229.16) scale(.19703)"/>
              <path fill="none" stroke="url(#E)" stroke-width="4" d="M-136.47 397.32h-11.444" transform="translate(229.315 229.16) scale(.19703)"/>
              <g fill="none" stroke="url(#F)" stroke-width="4.138" transform="matrix(.18797 0 0 .19299 12.768 231.996)">
                <path d="M1038.1 407.71l9.759-17.026 19.624-.062 9.865 16.964"/>
                <path d="M1067.61 390.678l9.759-17.026 19.624-.062 9.865 16.964"/>
                <path d="M1097.1 407.17l9.759-17.026 19.624-.062 9.865 16.964"/>
                <path d="M1126.61 390.268l9.759-17.026 19.624-.062 9.865 16.964"/>
                <path d="M1156.2 407.21l9.759-17.026 19.624-.062 9.865 16.964"/>
                <path d="M1185.7 390.26l9.759-17.026 19.624-.062 9.865 16.964-9.759 17.026"/>
                <path d="M1018.4 407.98l-9.865-16.964 9.758-17.026 19.624-.062 9.866 16.964"/>
              </g>
              <path fill="none" stroke="#847f77" stroke-width=".788" d="M245.172 320.213h-2.255"/>
              <path fill="none" stroke="url(#G)" stroke-width="4" d="M-136.99 364.08h-11.444" transform="translate(229.315 229.16) scale(.19703)"/>
              <g fill="none" stroke="url(#F)" stroke-width="4.138" transform="matrix(.18797 0 0 .19299 12.72 225.417)">
                <path d="M1038.1 407.71l9.759-17.026 19.624-.062 9.865 16.964"/>
                <path d="M1067.61 390.678l9.759-17.026 19.624-.062 9.865 16.964"/>
                <path d="M1097.1 407.17l9.759-17.026 19.624-.062 9.865 16.964"/>
                <path d="M1126.61 390.268l9.759-17.026 19.624-.062 9.865 16.964"/>
                <path d="M1156.2 407.21l9.759-17.026 19.624-.062 9.865 16.964"/>
                <path d="M1185.7 390.26l9.759-17.026 19.624-.062 9.865 16.964-9.759 17.026"/>
                <path d="M1018.4 407.98l-9.865-16.964 9.758-17.026 19.624-.062 9.866 16.964"/>
              </g>
              <path fill="none" stroke="#847f77" stroke-width=".788" d="M245.139 333.205h-2.255"/>
              <path fill="#26121c" stroke="#847f77" stroke-width=".788" d="M245.172 339.822h-2.255"/>
              <path fill="none" stroke="#847f77" stroke-width=".788" d="M245.206 346.3h-2.255"/>
              <path fill="none" stroke="#847f77" stroke-width=".788" d="M245.206 352.796h-2.255"/>
              <path fill="none" stroke="#847f77" stroke-width=".788" d="M245.155 326.59H242.9"/>
              <g fill="none" stroke="url(#F)" stroke-width="4.138" transform="matrix(.18797 0 0 .19299 12.52 212.476)">
                <path d="M1038.1 407.71l9.759-17.026 19.624-.062 9.865 16.964"/>
                <path d="M1067.61 390.678l9.759-17.026 19.624-.062 9.865 16.964"/>
                <path d="M1097.1 407.17l9.759-17.026 19.624-.062 9.865 16.964"/>
                <path d="M1126.61 390.268l9.759-17.026 19.624-.062 9.865 16.964"/>
                <path d="M1156.2 407.21l9.759-17.026 19.624-.062 9.865 16.964"/>
                <path d="M1221.6 395.41l-5.83 11.133m-30.114-16.277l5.116-9.615"/>
                <path d="M1042.7 381.96l5.133 8.928m-28.758 16.82l-6.65-10.893"/>
              </g>
              <path fill="none" stroke="url(#H)" stroke-width="4" d="M-137.07 331.03h-11.444" transform="translate(229.315 229.16) scale(.19703)"/>
              <path fill="#c3bec4" fill-opacity=".871" stroke="#d2cfcf" stroke-width=".788" d="M202.444 359.45h-2.255"/>
              <path fill="#d2cfcf" stroke="#d8d8d8" stroke-width=".788" d="M202.397 352.968h-2.255"/>
              <path fill="#d2cfcf" stroke="#d8d8d8" stroke-width=".788" d="M202.444 346.462h-2.255"/>
              <path fill="#bebebe" fill-opacity=".846" stroke="#d8d8d8" stroke-width=".788" d="M202.324 340.029h-2.255"/>
              <path fill="#bebebe" fill-opacity=".846" stroke="#d8d8d8" stroke-width=".788" d="M202.375 333.326h-2.255"/>
              <g fill="none" stroke="url(#F)" stroke-width="4.138" transform="matrix(.18797 0 0 .19299 12.883 290.497)">
                <path d="M1042 402.28l5.844-11.596 19.624-.062 9.866 16.964"/>
                <path d="M1067.61 390.678l9.759-17.026 19.624-.062 9.865 16.964"/>
                <path d="M1097.1 407.17l9.759-17.026 19.624-.062 9.865 16.964"/>
                <path d="M1126.61 390.268l9.759-17.026 19.624-.062 9.865 16.964"/>
                <path d="M1156.2 407.21l9.759-17.026 19.624-.062 6.456 11.534"/>
                <path d="M1185.7 390.26l9.759-17.026 19.624-.062 8.602 15.323"/>
                <path d="M1009.8 388.36l8.496-14.374 19.624-.062 9.865 16.964"/>
              </g>
              <path fill="none" stroke="#847f77" stroke-width=".788" d="M245.273 359.182h-2.255"/>
              <path fill="none" stroke="url(#I)" stroke-width="5.167" d="M80.956 685.89l-.21-375.38-97.393-48.419-33.85-.062-98.6 49.1.362 373.38 100.64 45.102 28.722-.03 99.633-43.34.691-.346z" transform="translate(229.315 229.16) scale(.19703)"/>
              <g fill="none" stroke="url(#F)" stroke-width="4.138" transform="matrix(.18797 0 0 .19299 12.72 218.886)">
                <path d="M1038.1 407.71l9.759-17.026 19.624-.062 9.865 16.964"/>
                <path d="M1067.61 390.678l9.759-17.026 19.624-.062 9.865 16.964"/>
                <path d="M1097.1 407.17l9.759-17.026 19.624-.062 9.865 16.964"/>
                <path d="M1126.61 390.268l9.759-17.026 19.624-.062 9.865 16.964"/>
                <path d="M1156.2 407.21l9.759-17.026 19.624-.062 9.865 16.964"/>
                <path d="M1185.7 390.26l9.759-17.026 19.624-.062 9.865 16.964-9.759 17.026"/>
                <path d="M1018.4 407.98l-9.865-16.964 9.758-17.026 19.624-.062 9.866 16.964"/>
              </g>
              <g fill="none" stroke="url(#F)" stroke-width="4.138" transform="matrix(.18797 0 0 .19299 12.673 238.332)">
                <path d="M1038.1 407.71l9.759-17.026 19.624-.062 9.865 16.964"/>
                <path d="M1067.61 390.678l9.759-17.026 19.624-.062 9.865 16.964"/>
                <path d="M1097.1 407.17l9.759-17.026 19.624-.062 9.865 16.964"/>
                <path d="M1126.61 390.268l9.759-17.026 19.624-.062 9.865 16.964"/>
                <path d="M1156.2 407.21l9.759-17.026 19.624-.062 9.865 16.964"/>
                <path d="M1185.7 390.26l9.759-17.026 19.624-.062 9.865 16.964-9.759 17.026"/>
                <path d="M1018.4 407.98l-9.865-16.964 9.758-17.026 19.624-.062 9.866 16.964"/>
              </g>
              <g fill="none" stroke="url(#F)" stroke-width="4.138" transform="matrix(.18797 0 0 .19299 12.673 244.911)">
                <path d="M1038.1 407.71l9.759-17.026 19.624-.062 9.865 16.964"/>
                <path d="M1067.61 390.678l9.759-17.026 19.624-.062 9.865 16.964"/>
                <path d="M1097.1 407.17l9.759-17.026 19.624-.062 9.865 16.964"/>
                <path d="M1126.61 390.268l9.759-17.026 19.624-.062 9.865 16.964"/>
                <path d="M1156.2 407.21l9.759-17.026 19.624-.062 9.865 16.964"/>
                <path d="M1185.7 390.26l9.759-17.026 19.624-.062 9.865 16.964-9.759 17.026"/>
                <path d="M1018.4 407.98l-9.865-16.964 9.758-17.026 19.624-.062 9.866 16.964"/>
              </g>
              <g fill="none" stroke="url(#F)" stroke-width="4.138" transform="matrix(.18797 0 0 .19299 12.673 251.296)">
                <path d="M1038.1 407.71l9.759-17.026 19.624-.062 9.865 16.964"/>
                <path d="M1067.61 390.678l9.759-17.026 19.624-.062 9.865 16.964"/>
                <path d="M1097.1 407.17l9.759-17.026 19.624-.062 9.865 16.964"/>
                <path d="M1126.61 390.268l9.759-17.026 19.624-.062 9.865 16.964"/>
                <path d="M1156.2 407.21l9.759-17.026 19.624-.062 9.865 16.964"/>
                <path d="M1185.7 390.26l9.759-17.026 19.624-.062 9.865 16.964-9.759 17.026"/>
                <path d="M1018.4 407.98l-9.865-16.964 9.758-17.026 19.624-.062 9.866 16.964"/>
              </g>
              <g fill="none" stroke="url(#F)" stroke-width="4.138" transform="matrix(.18797 0 0 .19299 12.72 257.875)">
                <path d="M1038.1 407.71l9.759-17.026 19.624-.062 9.865 16.964"/>
                <path d="M1067.61 390.678l9.759-17.026 19.624-.062 9.865 16.964"/>
                <path d="M1097.1 407.17l9.759-17.026 19.624-.062 9.865 16.964"/>
                <path d="M1126.61 390.268l9.759-17.026 19.624-.062 9.865 16.964"/>
                <path d="M1156.2 407.21l9.759-17.026 19.624-.062 9.865 16.964"/>
                <path d="M1185.7 390.26l9.759-17.026 19.624-.062 9.865 16.964-9.759 17.026"/>
                <path d="M1018.4 407.98l-9.865-16.964 9.758-17.026 19.624-.062 9.866 16.964"/>
              </g>
              <g fill="none" stroke="url(#F)" stroke-width="4.138" transform="matrix(.18797 0 0 .19299 12.816 270.985)">
                <path d="M1038.1 407.71l9.759-17.026 19.624-.062 9.865 16.964"/>
                <path d="M1067.61 390.678l9.759-17.026 19.624-.062 9.865 16.964"/>
                <path d="M1097.1 407.17l9.759-17.026 19.624-.062 9.865 16.964"/>
                <path d="M1126.61 390.268l9.759-17.026 19.624-.062 9.865 16.964"/>
                <path d="M1156.2 407.21l9.759-17.026 19.624-.062 9.865 16.964"/>
                <path d="M1185.7 390.26l9.759-17.026 19.624-.062 9.865 16.964-9.759 17.026"/>
                <path d="M1018.4 407.98l-9.865-16.964 9.758-17.026 19.624-.062 9.866 16.964"/>
              </g>
              <g fill="none" stroke="url(#F)" stroke-width="4.138" transform="matrix(.18797 0 0 .19299 12.816 277.516)">
                <path d="M1038.1 407.71l9.759-17.026 19.624-.062 9.865 16.964"/>
                <path d="M1067.61 390.678l9.759-17.026 19.624-.062 9.865 16.964"/>
                <path d="M1097.1 407.17l9.759-17.026 19.624-.062 9.865 16.964"/>
                <path d="M1126.61 390.268l9.759-17.026 19.624-.062 9.865 16.964"/>
                <path d="M1156.2 407.21l9.759-17.026 19.624-.062 9.865 16.964"/>
                <path d="M1185.7 390.26l9.759-17.026 19.624-.062 9.865 16.964-9.759 17.026"/>
                <path d="M1018.4 407.98l-9.865-16.964 9.758-17.026 19.624-.062 9.866 16.964"/>
              </g>
              <g fill="none" stroke="url(#F)" stroke-width="4.138" transform="matrix(.18797 0 0 .19299 12.816 283.949)">
                <path d="M1038.1 407.71l9.759-17.026 19.624-.062 9.865 16.964"/>
                <path d="M1067.61 390.678l9.759-17.026 19.624-.062 9.865 16.964"/>
                <path d="M1097.1 407.17l9.759-17.026 19.624-.062 9.865 16.964"/>
                <path d="M1126.61 390.268l9.759-17.026 19.624-.062 9.865 16.964"/>
                <path d="M1156.2 407.21l9.759-17.026 19.624-.062 9.865 16.964"/>
                <path d="M1185.7 390.26l9.759-17.026 19.624-.062 9.865 16.964-9.759 17.026"/>
                <path d="M1018.4 407.98l-9.865-16.964 9.758-17.026 19.624-.062 9.866 16.964"/>
              </g>
              <g fill="none" stroke="url(#F)" stroke-width="4.138" transform="matrix(.18797 0 0 .19299 12.614 205.946)">
                <path d="M1073.5 400.45l3.794 7.143"/>
                <path d="M1097.1 407.17l9.759-17.026 19.624-.062 9.865 16.964"/>
                <path d="M1156.2 407.21l3.866-7.026"/>
              </g>
              <g fill="none" stroke="url(#J)" stroke-width="4.053" transform="matrix(.19191 0 0 .19703 155.81 228.447)">
                <path stroke="url(#K)" d="M271.19 582.33l9.558-16.676 19.221-.06 9.663 16.616"/>
                <path stroke="url(#L)" d="M300.096 565.655l9.558-16.676 19.221-.06 9.663 16.616"/>
                <path stroke="url(#M)" d="M329.01 581.8l9.558-16.676 19.221-.06 9.663 16.616"/>
                <path stroke="url(#N)" d="M357.916 565.245l9.558-16.676 19.221-.06 9.663 16.616"/>
                <path stroke="url(#O)" d="M386.83 581.85l9.558-16.676 19.221-.06 9.663 16.616"/>
                <path stroke="url(#P)" d="M415.74 565.24l9.558-16.676 19.221-.06 9.663 16.616-9.558 16.676"/>
                <path stroke="url(#Q)" d="M251.94 582.6l-9.663-16.616 9.558-16.676 19.221-.06 9.663 16.616"/>
              </g>
            </g>
            <path fill="url(#R)" d="M1575.9 180.7c79.675 8.788 115.89-21.813 124.69-31.728 8.458-9.538 14.694-19.504 21.408-30.552.046-5.487-1.6-126.99-1.6-126.99s-9.317-.374-10.813-.316c.081 48.602-137.08 163.73-133.68 189.58z" filter="url(#S)" opacity=".535" transform="translate(-87.043 344.208) scale(.19703)"/>
            <path fill="url(#T)" d="M1556.2-370.77c-31.59.576-79.299 13.838-102.44 26.104-12.914 7.597-27.623 16.398-36.605 33.618-.108 11.826.967 294.58.967 294.58s16.792.036 20.292-.09c13.74-117.88 203.59-261.72 118.13-350.08l-.345-4.132z" filter="url(#U)" opacity=".827" transform="translate(-87.043 344.208) scale(.19703)"/>
            <g>
              <path fill="#494a4d" stroke="url(#V)" stroke-width="4" d="M371.28 726.89c0 11.603-9.406 21.009-21.009 21.009s-21.009-9.406-21.009-21.009 9.406-21.009 21.009-21.009 21.009 9.406 21.009 21.009z" transform="translate(160.834 243.513) scale(.17639)"/>
              <path fill="#060a18" stroke="url(#W)" stroke-width="2.005" d="M796.86 205.41h5.367v25.384h-5.367z" transform="matrix(.12987 .14817 -.15997 .11503 153.874 228.303)"/>
            </g>
            <g>
              <path fill="#494a4d" stroke="url(#X)" stroke-width="4" d="M371.28 726.89c0 11.603-9.406 21.009-21.009 21.009s-21.009-9.406-21.009-21.009 9.406-21.009 21.009-21.009 21.009 9.406 21.009 21.009z" transform="translate(160.498 153.109) scale(.17639)"/>
              <path fill="#060a18" stroke="url(#Y)" stroke-width="2.005" d="M796.86 205.41h5.367v25.384h-5.367z" transform="matrix(.12987 .14817 -.15997 .11503 153.539 137.899)"/>
            </g>
          </g>
          <use transform="translate(-.071 128.382)" xlink:href="#Z"/>
        </g>
      </g>
    </g>
    <path fill="url(#aa)" d="M133.1 381.86c-.33-.039-1.456-.167-2.501-.286-5.549-.628-10.486-2.43-13.714-5.005-2.337-1.863-5.453-5.68-5.814-7.118-.06-.244-.081-18.705-.045-41.026l.065-40.582.457-.994c1.04-2.263 3.622-5.031 5.983-6.416 7.417-4.352 18.974-6.256 29.223-4.815 7.028.988 14.123 3.754 17.43 6.794.713.657 2.8 3.315 3.21 4.087.565 1.067.63 6.137.576 44.156l-.057 38.802-.564 1.117c-1.075 2.127-4.582 5.725-7.249 7.44-3.126 2.008-7.768 3.278-13.796 3.773-2.213.181-11.82.235-13.205.073z" transform="translate(-107.309 -267.457)"/>
    <path fill="url(#ab)" stroke="#3a4d53" stroke-width=".589" d="M135.53 378.2l-21.748-10.25.059-77.983 21.809-9.769h7.48l21.728 9.675-.047 78.488c-6.243 3.125-15.945 7.221-22.352 9.984l-6.928-.145zm27.819-10.675l.15-76.07-20.455-9.883-7.223-.02-20.645 10.05.099 75.599 20.404 9.575 6.719.076 20.95-9.328z" transform="translate(-107.309 -267.457)"/>
    <path fill="url(#ac)" stroke="#ebe5e5" stroke-opacity=".297" stroke-width=".597" d="M134.03 384.07c-10-.547-16.167-2.549-20.799-6.75-1.63-1.478-3.426-3.603-4.073-4.818l-.607-1.138.051-42.869.051-42.869.697-1.173c1.032-1.737 3.997-4.66 5.672-5.593 9.715-5.407 23.886-7.09 36.721-4.362 4.98 1.058 10.401 3.14 13.335 5.12 1.594 1.076 3.677 3.449 4.646 5.294l.728 1.385-.002 42.365-.002 42.365-.497 1.068c-.608 1.305-1.355 2.298-3.065 4.074-4.338 4.505-9.584 6.678-18.328 7.59-3.42.358-10.793.516-14.529.311zm13.733-2.299c7.887-.87 12.136-2.655 16.321-6.855 2.21-2.218 3.333-3.755 3.895-5.33.22-.617.269-7.806.276-40.9.01-44.992.162-40.576-1.483-43.143-1.805-2.817-3.982-4.623-7.563-6.272-8.843-4.074-20-5.16-30.425-2.96-4.618.973-9.46 2.83-12.303 4.719-2.072 1.376-4.77 4.607-5.446 6.522-.253.717-.292 6.248-.292 41.278v40.451l.687 1.37c.378.754 1.391 2.177 2.252 3.162 4.78 5.475 10.959 7.792 22.239 8.339 2.48.12 9.287-.099 11.842-.38z" transform="translate(-107.309 -267.457)"/>
    <path fill="#140b0b" stroke="#383838" stroke-width=".197" d="M35.031 108.943l20.612-9.106.1-75.583-20.115-9.74-6.991-.012-20.364 9.877.075 75.11 20.575 9.354 6.107.1z"/>
    <path fill="#241010" d="M34.781 108.263l19.464-8.878.094-73.696-18.994-9.497-6.601-.012-19.23 9.63.071 73.235 19.43 9.12 5.767.098z"/>
    <path fill="url(#ad)" d="M139.77 364.11c.068-1.902.088-.403.123-2.902-10.592.253-17.292-8.819-17.573-17.4-.276-8.393 6.36-14.36 16.506-16.937 3.213-1.086 18.914-3.017 19.337-16.886.113-8.948-5.251-18.297-17.334-17.963-12.083.333-17.971 8.907-17.628 18.344.462 11.398 10.153 13.784 17.249 16.097 3.97 2.347 17.046 1.985 17.718 16.616-.02 10.622-10.154 18.699-18.018 18.195.017 2.417-.132.04.031 2.823 9.377.216 20.62-7.713 20.63-21.112.104-17.5-22.37-19.84-22.37-19.84s-11.792-2.445-12.09-13.028c-.233-6.31 3.639-15.022 14.747-15.075 11.4.268 14.068 8.937 14.007 15.044-1.319 10.334-12.077 12.655-14.685 13.37-5.126 1.858-20.223 4.214-20.895 20.052.965 13.368 9.696 20.38 20.246 20.602z" transform="translate(-107.309 -267.457)"/>
    <path fill="url(#ae)" d="M119.45 295.34l-.01 2.7h33.738l-16.066 29.009s17.317 1.368 18.17 16.67c-.498 10.017-3.506 19.001-16.442 19.993-15.936 1.43-17.986-10.945-16.254-17.786-.589-.111-2.656-1.21-3.246-1.021-1.587 6.787.664 22.32 19.558 21.896 17.993-2.142 19.48-18.044 19.397-22.87-.85-16.14-17.03-19.36-17.03-19.36l13.714-24.866.075-4.062-35.612-.298z" transform="translate(-107.309 -267.457)"/>
    <path fill="url(#af)" d="M155.21 293.36l-34.213-.208-3.123 35.262c6.678-1.015 12.902-2.169 20.136-2.457 9.866-.009 17.94 7.542 18.007 17.712.066 10.17-7.863 19.311-18.164 19.66-8.23-.454-18.422-5.512-16.607-20.072-1.757 0-1.224-.502-2.71-.489-2.892 14.53 7.493 22.766 19.152 22.861 11.659.095 20.828-9.076 20.878-21.836.05-12.76-10.674-20.465-20.367-20.326-9.694.14-17.458 1.627-17.458 1.627l2.548-29.37 31.727.396.326-2.233-.131-.527z" transform="translate(-107.309 -267.457)"/>
    <path fill="url(#ag)" d="M119.93 295.2h39.723l-.003 3.505-22.374 65.56-2.328-.482 22.537-65.98-37.487.132-.07-2.735h.001z" transform="translate(-107.309 -267.457)"/>
    <path fill="url(#ah)" d="M142.46 294.5c-7.137.23-21.69 15.815-24.01 33.329-.967 7.232-4.226 38.748 18.595 38.721 14.267-.624 21.868-9.565 22.537-22.501.471-13.924-11.741-20.723-20.606-20.655-8.866.068-18.174 6.993-18.174 6.993l-.18 3.067s10.276-8.172 18.54-7.302c8.262.87 17.7 4.809 18.151 17.955-.537 14.333-10.352 20.234-20.29 20.327-20.204-.62-16.935-28.467-16.213-35.923 1.644-15.128 16.076-30.948 20.972-31.242.236-1.386.317-.83.68-2.77z" transform="translate(-107.309 -267.457)"/>
    <path fill="url(#ai)" d="M137.93 365.36c0-.778.356-.563.378-2.364 15.64-.711 17.87-22.383 17.902-34.053.033-11.67-4.91-32.775-17.82-32.479-12.909.296-17.852 21.663-18.01 33.163-.158 11.501 4.178 33.298 17.558 33.458.024 1.184.09-.396.15 2.494-11.966-.493-19.84-13.428-19.885-35.937-.046-22.509 9.697-35.47 20.277-35.84 10.58-.368 19.8 14.266 20.062 35.03.261 20.764-7.002 36.76-20.611 36.527z" transform="translate(-107.309 -267.457)"/>
    <path fill="url(#aj)" d="M134.78 363.07c7.137-.23 21.69-15.815 24.01-33.329.967-7.232 4.226-38.748-18.595-38.721-14.267.624-21.868 9.565-22.537 22.5-.471 13.924 11.741 20.723 20.606 20.655 8.866-.068 18.174-6.993 18.174-6.993l.18-3.067s-10.276 8.172-18.54 7.302c-8.262-.87-17.7-4.808-18.151-17.955.537-14.333 10.352-20.234 20.29-20.327 20.204.62 16.935 28.467 16.213 35.922-1.644 15.128-16.076 30.948-20.972 31.242-.236 1.386-.317.83-.68 2.77z" transform="translate(-107.309 -267.457)"/>
    <path fill="url(#ak)" d="M136.5 291.68v74.353h3.226V291.68z" transform="translate(-107.309 -267.457)"/>
    <path fill="url(#al)" d="M146.66 363.57h-2.482v-67.324l-24.853 52.121 38.712-.093v2.53l-42.56-.093 28.369-60.59h2.91l-.096 73.45z" transform="translate(-107.309 -267.457)"/>
    <path fill="url(#am)" d="M122.66 311.56c-1.961.1 0 .22-2.529.249-.535-14.331 11.388-19.11 20.271-19.081 8.884.029 19.185 2.772 19.064 18.302-.121 15.53-13.157 18-18.389 20.287-6.19 2.751-10.162 6.21-14.332 11.219-4.17 5.009-4.88 18.863-4.88 18.863l37.84.295-.09 2.149s-30.652.185-40.508-.176c.386-11.285 1.024-12.487 2.56-16.88 1.907-5.747 8.118-13.655 18.462-17.969 5.245-2.187 16.673-5.864 16.72-17.693.046-11.828-8.452-15.824-16.447-15.603-7.994.221-17.942 6.136-17.742 16.037z" transform="translate(-107.309 -267.457)"/>
    <g>
      <path fill="none" stroke="url(#an)" stroke-width="4" d="M-74.399 718.69l3.769-8.142 18.722-.06 9.412 16.615" transform="translate(38.6 -35.837) scale(.19703)"/>
      <path fill="none" stroke="url(#an)" stroke-width="4" d="M-42.471 726.7l18.722-.06" transform="translate(38.6 -35.837) scale(.19703)"/>
      <path fill="none" stroke="url(#an)" stroke-width="4" d="M-23.621 726.82l9.31-16.676 18.722-.06 4.473 8.453" transform="translate(38.6 -35.837) scale(.19703)"/>
      <path fill="none" stroke="url(#ao)" stroke-width="4" d="M80.65 329.8H69.206" transform="translate(38.6 -35.837) scale(.19703)"/>
      <path fill="none" stroke="url(#ao)" stroke-width="4" d="M80.48 362.95H69.036" transform="translate(38.6 -35.837) scale(.19703)"/>
      <path fill="none" stroke="url(#ao)" stroke-width="4" d="M80.906 396.35H69.462" transform="translate(38.6 -35.837) scale(.19703)"/>
      <path fill="none" stroke="#847f77" stroke-width=".788" d="M54.39 48.615h-2.255"/>
      <path fill="#bebebe" fill-opacity=".846" stroke="#d8d8d8" stroke-width=".788" d="M11.575 61.78H9.32"/>
      <path fill="#bebebe" fill-opacity=".846" stroke="#d8d8d8" stroke-width=".788" d="M11.626 55.371H9.371"/>
      <path fill="none" stroke="url(#ao)" stroke-width="4" d="M-136.99 429.24h-11.444" transform="translate(38.6 -35.837) scale(.19703)"/>
      <path fill="none" stroke="url(#ao)" stroke-width="4" d="M-136.47 397.32h-11.444" transform="translate(38.6 -35.837) scale(.19703)"/>
      <g fill="none" stroke="url(#ap)" stroke-width="4.138" transform="matrix(.18797 0 0 .19299 -177.947 -33.002)">
        <path d="M1038.1 407.71l9.759-17.026 19.624-.062 9.865 16.964"/>
        <path d="M1067.61 390.678l9.759-17.026 19.624-.062 9.865 16.964"/>
        <path d="M1097.1 407.17l9.759-17.026 19.624-.062 9.865 16.964"/>
        <path d="M1126.61 390.268l9.759-17.026 19.624-.062 9.865 16.964"/>
        <path d="M1156.2 407.21l9.759-17.026 19.624-.062 9.865 16.964"/>
        <path d="M1185.7 390.26l9.759-17.026 19.624-.062 9.865 16.964-9.759 17.026"/>
        <path d="M1018.4 407.98l-9.865-16.964 9.758-17.026 19.624-.062 9.866 16.964"/>
      </g>
      <path fill="none" stroke="#847f77" stroke-width=".788" d="M54.457 55.215h-2.255"/>
      <path fill="none" stroke="url(#aq)" stroke-width="4" d="M-136.99 364.08h-11.444" transform="translate(38.6 -35.837) scale(.19703)"/>
      <g fill="none" stroke="url(#ap)" stroke-width="4.138" transform="matrix(.18797 0 0 .19299 -177.994 -39.581)">
        <path d="M1038.1 407.71l9.759-17.026 19.624-.062 9.865 16.964"/>
        <path d="M1067.61 390.678l9.759-17.026 19.624-.062 9.865 16.964"/>
        <path d="M1097.1 407.17l9.759-17.026 19.624-.062 9.865 16.964"/>
        <path d="M1126.61 390.268l9.759-17.026 19.624-.062 9.865 16.964"/>
        <path d="M1156.2 407.21l9.759-17.026 19.624-.062 9.865 16.964"/>
        <path d="M1185.7 390.26l9.759-17.026 19.624-.062 9.865 16.964-9.759 17.026"/>
        <path d="M1018.4 407.98l-9.865-16.964 9.758-17.026 19.624-.062 9.866 16.964"/>
      </g>
      <path fill="none" stroke="#847f77" stroke-width=".788" d="M54.423 68.208H52.17"/>
      <path fill="#26121c" stroke="#847f77" stroke-width=".788" d="M54.457 74.824h-2.255"/>
      <path fill="none" stroke="#847f77" stroke-width=".788" d="M54.49 81.302h-2.254"/>
      <path fill="none" stroke="#847f77" stroke-width=".788" d="M54.49 87.799h-2.254"/>
      <path fill="none" stroke="#847f77" stroke-width=".788" d="M54.44 61.591h-2.255"/>
      <g fill="none" stroke="url(#ap)" stroke-width="4.138" transform="matrix(.18797 0 0 .19299 -178.196 -52.522)">
        <path d="M1038.1 407.71l9.759-17.026 19.624-.062 9.865 16.964"/>
        <path d="M1067.61 390.678l9.759-17.026 19.624-.062 9.865 16.964"/>
        <path d="M1097.1 407.17l9.759-17.026 19.624-.062 9.865 16.964"/>
        <path d="M1126.61 390.268l9.759-17.026 19.624-.062 9.865 16.964"/>
        <path d="M1156.2 407.21l9.759-17.026 19.624-.062 9.865 16.964"/>
        <path d="M1221.6 395.41l-5.83 11.133m-30.114-16.277l5.116-9.615"/>
        <path d="M1042.7 381.96l5.133 8.928m-28.758 16.82l-6.65-10.893"/>
      </g>
      <path fill="none" stroke="url(#ar)" stroke-width="4" d="M-137.07 331.03h-11.444" transform="translate(38.6 -35.837) scale(.19703)"/>
      <path fill="#c3bec4" fill-opacity=".871" stroke="#d2cfcf" stroke-width=".788" d="M11.729 94.452H9.474"/>
      <path fill="#d2cfcf" stroke="#d8d8d8" stroke-width=".788" d="M11.681 87.97H9.427"/>
      <path fill="#d2cfcf" stroke="#d8d8d8" stroke-width=".788" d="M11.729 81.464H9.474"/>
      <path fill="#bebebe" fill-opacity=".846" stroke="#d8d8d8" stroke-width=".788" d="M11.609 75.03H9.354"/>
      <path fill="#bebebe" fill-opacity=".846" stroke="#d8d8d8" stroke-width=".788" d="M11.66 68.328H9.405"/>
      <g fill="none" stroke="url(#ap)" stroke-width="4.138" transform="matrix(.18797 0 0 .19299 -177.832 25.499)">
        <path d="M1042 402.28l5.844-11.596 19.624-.062 9.866 16.964"/>
        <path d="M1067.61 390.678l9.759-17.026 19.624-.062 9.865 16.964"/>
        <path d="M1097.1 407.17l9.759-17.026 19.624-.062 9.865 16.964"/>
        <path d="M1126.61 390.268l9.759-17.026 19.624-.062 9.865 16.964"/>
        <path d="M1156.2 407.21l9.759-17.026 19.624-.062 6.456 11.534"/>
        <path d="M1185.7 390.26l9.759-17.026 19.624-.062 8.602 15.323"/>
        <path d="M1009.8 388.36l8.496-14.374 19.624-.062 9.865 16.964"/>
      </g>
      <path fill="none" stroke="#847f77" stroke-width=".788" d="M54.558 94.184h-2.255"/>
      <path fill="none" stroke="url(#as)" stroke-width="5.167" d="M80.956 685.89l-.21-375.38-97.393-48.419-33.85-.062-98.6 49.1.362 373.38 100.64 45.102 28.722-.03 99.633-43.34.691-.346z" transform="translate(38.6 -35.837) scale(.19703)"/>
      <g fill="none" stroke="url(#ap)" stroke-width="4.138" transform="matrix(.18797 0 0 .19299 -177.994 -46.112)">
        <path d="M1038.1 407.71l9.759-17.026 19.624-.062 9.865 16.964"/>
        <path d="M1067.61 390.678l9.759-17.026 19.624-.062 9.865 16.964"/>
        <path d="M1097.1 407.17l9.759-17.026 19.624-.062 9.865 16.964"/>
        <path d="M1126.61 390.268l9.759-17.026 19.624-.062 9.865 16.964"/>
        <path d="M1156.2 407.21l9.759-17.026 19.624-.062 9.865 16.964"/>
        <path d="M1185.7 390.26l9.759-17.026 19.624-.062 9.865 16.964-9.759 17.026"/>
        <path d="M1018.4 407.98l-9.865-16.964 9.758-17.026 19.624-.062 9.866 16.964"/>
      </g>
      <g fill="none" stroke="url(#ap)" stroke-width="4.138" transform="matrix(.18797 0 0 .19299 -178.042 -26.666)">
        <path d="M1038.1 407.71l9.759-17.026 19.624-.062 9.865 16.964"/>
        <path d="M1067.61 390.678l9.759-17.026 19.624-.062 9.865 16.964"/>
        <path d="M1097.1 407.17l9.759-17.026 19.624-.062 9.865 16.964"/>
        <path d="M1126.61 390.268l9.759-17.026 19.624-.062 9.865 16.964"/>
        <path d="M1156.2 407.21l9.759-17.026 19.624-.062 9.865 16.964"/>
        <path d="M1185.7 390.26l9.759-17.026 19.624-.062 9.865 16.964-9.759 17.026"/>
        <path d="M1018.4 407.98l-9.865-16.964 9.758-17.026 19.624-.062 9.866 16.964"/>
      </g>
      <g fill="none" stroke="url(#ap)" stroke-width="4.138" transform="matrix(.18797 0 0 .19299 -178.042 -20.087)">
        <path d="M1038.1 407.71l9.759-17.026 19.624-.062 9.865 16.964"/>
        <path d="M1067.61 390.678l9.759-17.026 19.624-.062 9.865 16.964"/>
        <path d="M1097.1 407.17l9.759-17.026 19.624-.062 9.865 16.964"/>
        <path d="M1126.61 390.268l9.759-17.026 19.624-.062 9.865 16.964"/>
        <path d="M1156.2 407.21l9.759-17.026 19.624-.062 9.865 16.964"/>
        <path d="M1185.7 390.26l9.759-17.026 19.624-.062 9.865 16.964-9.759 17.026"/>
        <path d="M1018.4 407.98l-9.865-16.964 9.758-17.026 19.624-.062 9.866 16.964"/>
      </g>
      <g fill="none" stroke="url(#ap)" stroke-width="4.138" transform="matrix(.18797 0 0 .19299 -178.042 -13.702)">
        <path d="M1038.1 407.71l9.759-17.026 19.624-.062 9.865 16.964"/>
        <path d="M1067.61 390.678l9.759-17.026 19.624-.062 9.865 16.964"/>
        <path d="M1097.1 407.17l9.759-17.026 19.624-.062 9.865 16.964"/>
        <path d="M1126.61 390.268l9.759-17.026 19.624-.062 9.865 16.964"/>
        <path d="M1156.2 407.21l9.759-17.026 19.624-.062 9.865 16.964"/>
        <path d="M1185.7 390.26l9.759-17.026 19.624-.062 9.865 16.964-9.759 17.026"/>
        <path d="M1018.4 407.98l-9.865-16.964 9.758-17.026 19.624-.062 9.866 16.964"/>
      </g>
      <g fill="none" stroke="url(#ap)" stroke-width="4.138" transform="matrix(.18797 0 0 .19299 -177.994 -7.123)">
        <path d="M1038.1 407.71l9.759-17.026 19.624-.062 9.865 16.964"/>
        <path d="M1067.61 390.678l9.759-17.026 19.624-.062 9.865 16.964"/>
        <path d="M1097.1 407.17l9.759-17.026 19.624-.062 9.865 16.964"/>
        <path d="M1126.61 390.268l9.759-17.026 19.624-.062 9.865 16.964"/>
        <path d="M1156.2 407.21l9.759-17.026 19.624-.062 9.865 16.964"/>
        <path d="M1185.7 390.26l9.759-17.026 19.624-.062 9.865 16.964-9.759 17.026"/>
        <path d="M1018.4 407.98l-9.865-16.964 9.758-17.026 19.624-.062 9.866 16.964"/>
      </g>
      <g fill="none" stroke="url(#ap)" stroke-width="4.138" transform="matrix(.18797 0 0 .19299 -177.9 5.987)">
        <path d="M1038.1 407.71l9.759-17.026 19.624-.062 9.865 16.964"/>
        <path d="M1067.61 390.678l9.759-17.026 19.624-.062 9.865 16.964"/>
        <path d="M1097.1 407.17l9.759-17.026 19.624-.062 9.865 16.964"/>
        <path d="M1126.61 390.268l9.759-17.026 19.624-.062 9.865 16.964"/>
        <path d="M1156.2 407.21l9.759-17.026 19.624-.062 9.865 16.964"/>
        <path d="M1185.7 390.26l9.759-17.026 19.624-.062 9.865 16.964-9.759 17.026"/>
        <path d="M1018.4 407.98l-9.865-16.964 9.758-17.026 19.624-.062 9.866 16.964"/>
      </g>
      <g fill="none" stroke="url(#ap)" stroke-width="4.138" transform="matrix(.18797 0 0 .19299 -177.9 12.518)">
        <path d="M1038.1 407.71l9.759-17.026 19.624-.062 9.865 16.964"/>
        <path d="M1067.61 390.678l9.759-17.026 19.624-.062 9.865 16.964"/>
        <path d="M1097.1 407.17l9.759-17.026 19.624-.062 9.865 16.964"/>
        <path d="M1126.61 390.268l9.759-17.026 19.624-.062 9.865 16.964"/>
        <path d="M1156.2 407.21l9.759-17.026 19.624-.062 9.865 16.964"/>
        <path d="M1185.7 390.26l9.759-17.026 19.624-.062 9.865 16.964-9.759 17.026"/>
        <path d="M1018.4 407.98l-9.865-16.964 9.758-17.026 19.624-.062 9.866 16.964"/>
      </g>
      <g fill="none" stroke="url(#ap)" stroke-width="4.138" transform="matrix(.18797 0 0 .19299 -177.9 18.951)">
        <path d="M1038.1 407.71l9.759-17.026 19.624-.062 9.865 16.964"/>
        <path d="M1067.61 390.678l9.759-17.026 19.624-.062 9.865 16.964"/>
        <path d="M1097.1 407.17l9.759-17.026 19.624-.062 9.865 16.964"/>
        <path d="M1126.61 390.268l9.759-17.026 19.624-.062 9.865 16.964"/>
        <path d="M1156.2 407.21l9.759-17.026 19.624-.062 9.865 16.964"/>
        <path d="M1185.7 390.26l9.759-17.026 19.624-.062 9.865 16.964-9.759 17.026"/>
        <path d="M1018.4 407.98l-9.865-16.964 9.758-17.026 19.624-.062 9.866 16.964"/>
      </g>
      <g fill="none" stroke="url(#ap)" stroke-width="4.138" transform="matrix(.18797 0 0 .19299 -178.1 -59.052)">
        <path d="M1073.5 400.45l3.794 7.143"/>
        <path d="M1097.1 407.17l9.759-17.026 19.624-.062 9.865 16.964"/>
        <path d="M1156.2 407.21l3.866-7.026"/>
      </g>
      <g fill="none" stroke="url(#at)" stroke-width="4.053" transform="matrix(.19191 0 0 .19703 -34.906 -36.55)">
        <path d="M271.19 582.33l9.558-16.676 19.221-.06 9.663 16.616"/>
        <path d="M300.096 565.655l9.558-16.676 19.221-.06 9.663 16.616"/>
        <path d="M329.01 581.8l9.558-16.676 19.221-.06 9.663 16.616"/>
        <path d="M357.916 565.245l9.558-16.676 19.221-.06 9.663 16.616"/>
        <path d="M386.83 581.85l9.558-16.676 19.221-.06 9.663 16.616"/>
        <path d="M415.74 565.24l9.558-16.676 19.221-.06 9.663 16.616-9.558 16.676"/>
        <path d="M251.94 582.6l-9.663-16.616 9.558-16.676 19.221-.06 9.663 16.616"/>
      </g>
    </g>
    <g>
      <path fill="#494a4d" stroke="url(#au)" stroke-width="4" d="M371.28 726.89c0 11.603-9.406 21.009-21.009 21.009s-21.009-9.406-21.009-21.009 9.406-21.009 21.009-21.009 21.009 9.406 21.009 21.009z" transform="translate(-29.797 -21.192) scale(.17639)"/>
      <path fill="#060a18" stroke="url(#av)" stroke-width="2.005" d="M796.86 205.41h5.367v25.384h-5.367z" transform="matrix(.12987 .14817 -.15997 .11503 -36.757 -36.402)"/>
    </g>
    <g>
      <path fill="#494a4d" stroke="url(#aw)" stroke-width="4" d="M371.28 726.89c0 11.603-9.406 21.009-21.009 21.009s-21.009-9.406-21.009-21.009 9.406-21.009 21.009-21.009 21.009 9.406 21.009 21.009z" transform="translate(-30.133 -111.596) scale(.17639)"/>
      <path fill="#060a18" stroke="url(#ax)" stroke-width="2.005" d="M796.86 205.41h5.367v25.384h-5.367z" transform="matrix(.12987 .14817 -.15997 .11503 -37.093 -126.807)"/>
    </g>
    <path fill="url(#ay)" d="M-832.85-341.55c-31.59.576-79.299 13.838-102.44 26.104-12.914 7.597-27.623 16.398-36.605 33.618-.108 11.826.967 294.58.967 294.58s16.792.036 20.292-.09c13.74-117.88 203.59-261.72 118.13-350.08l-.345-4.132z" filter="url(#U)" opacity=".827" transform="translate(193.325 73.925) scale(.19703)"/>
    <path fill="url(#az)" d="M-808.8 202.35c79.675 8.788 115.89-21.813 124.69-31.728 8.458-9.538 14.694-19.504 21.408-30.552.046-5.487-1.601-126.99-1.601-126.99s-9.316-.374-10.812-.316c.08 48.602-137.08 163.73-133.68 189.58z" filter="url(#S)" opacity=".535" transform="translate(193.325 73.925) scale(.19703)"/>
  </g>
</svg>