{
    "asset" : {
        "generator" : "Khronos glTF Blender I/O v1.8.19",
        "version" : "2.0"
    },
    "scene" : 0,
    "scenes" : [
        {
            "name" : "Level",
            "nodes" : [
                0,
                1,
                2,
                3,
                4,
                5,
                6,
                7,
                8,
                9,
                10,
                11,
                12,
                13,
                14,
                15,
                16,
                17,
                18,
                19,
                20,
                21,
                22,
                23,
                24,
                25
            ]
        },
        {
            "name" : "Objects",
            "nodes" : [
                26,
                27
            ]
        }
    ],
    "nodes" : [
        {
            "mesh" : 0,
            "name" : "Barrel",
            "translation" : [
                -1.0245115756988525,
                0.42617833614349365,
                0.6252999305725098
            ]
        },
        {
            "mesh" : 0,
            "name" : "Barrel.001",
            "translation" : [
                -0.9995077848434448,
                0.42617833614349365,
                0.005428865551948547
            ]
        },
        {
            "name" : "Spawnpoint"
        },
        {
            "name" : "Spawnpoint.001",
            "translation" : [
                -6,
                0,
                4
            ]
        },
        {
            "name" : "Spawnpoint.002",
            "translation" : [
                -10,
                0,
                -2
            ]
        },
        {
            "name" : "Spawnpoint.003",
            "translation" : [
                -4,
                0,
                -6
            ]
        },
        {
            "mesh" : 1,
            "name" : "Floorplate"
        },
        {
            "mesh" : 1,
            "name" : "Floorplate.001",
            "translation" : [
                -2,
                0,
                0
            ]
        },
        {
            "mesh" : 1,
            "name" : "Floorplate.002",
            "translation" : [
                0,
                0,
                -2
            ]
        },
        {
            "mesh" : 1,
            "name" : "Floorplate.003",
            "translation" : [
                -2,
                0,
                -2
            ]
        },
        {
            "mesh" : 1,
            "name" : "Floorplate.004",
            "translation" : [
                -4,
                0,
                0
            ]
        },
        {
            "mesh" : 1,
            "name" : "Floorplate.005",
            "translation" : [
                -4,
                0,
                -2
            ]
        },
        {
            "mesh" : 1,
            "name" : "Floorplate.006",
            "translation" : [
                -6,
                0,
                0
            ]
        },
        {
            "mesh" : 1,
            "name" : "Floorplate.007",
            "translation" : [
                -6,
                0,
                -2
            ]
        },
        {
            "mesh" : 1,
            "name" : "Floorplate.008",
            "translation" : [
                -8,
                0,
                0
            ]
        },
        {
            "mesh" : 1,
            "name" : "Floorplate.009",
            "translation" : [
                -8,
                0,
                -2
            ]
        },
        {
            "mesh" : 1,
            "name" : "Floorplate.010",
            "translation" : [
                -10,
                0,
                0
            ]
        },
        {
            "mesh" : 1,
            "name" : "Floorplate.011",
            "translation" : [
                -10,
                0,
                -2
            ]
        },
        {
            "mesh" : 1,
            "name" : "Floorplate.012",
            "translation" : [
                -4,
                0,
                4
            ]
        },
        {
            "mesh" : 1,
            "name" : "Floorplate.013",
            "translation" : [
                -4,
                0,
                2
            ]
        },
        {
            "mesh" : 1,
            "name" : "Floorplate.014",
            "translation" : [
                -6,
                0,
                4
            ]
        },
        {
            "mesh" : 1,
            "name" : "Floorplate.015",
            "translation" : [
                -6,
                0,
                2
            ]
        },
        {
            "mesh" : 1,
            "name" : "Floorplate.016",
            "translation" : [
                -4,
                0,
                -4
            ]
        },
        {
            "mesh" : 1,
            "name" : "Floorplate.017",
            "translation" : [
                -4,
                0,
                -6
            ]
        },
        {
            "mesh" : 1,
            "name" : "Floorplate.018",
            "translation" : [
                -6,
                0,
                -4
            ]
        },
        {
            "mesh" : 1,
            "name" : "Floorplate.019",
            "translation" : [
                -6,
                0,
                -6
            ]
        },
        {
            "mesh" : 1,
            "name" : "Floorplate"
        },
        {
            "mesh" : 0,
            "name" : "Barrel",
            "translation" : [
                -1.0245115756988525,
                0.42617833614349365,
                0.6252999305725098
            ]
        }
    ],
    "meshes" : [
        {
            "name" : "Cylinder.002",
            "primitives" : [
                {
                    "attributes" : {
                        "POSITION" : 0,
                        "NORMAL" : 1,
                        "TEXCOORD_0" : 2
                    },
                    "indices" : 3
                }
            ]
        },
        {
            "name" : "Cube.002",
            "primitives" : [
                {
                    "attributes" : {
                        "POSITION" : 4,
                        "NORMAL" : 5,
                        "TEXCOORD_0" : 6
                    },
                    "indices" : 7
                }
            ]
        }
    ],
    "accessors" : [
        {
            "bufferView" : 0,
            "componentType" : 5126,
            "count" : 1984,
            "max" : [
                0.29765522480010986,
                0.4255000054836273,
                0.29765522480010986
            ],
            "min" : [
                -0.29765522480010986,
                -0.4255000054836273,
                -0.29765522480010986
            ],
            "type" : "VEC3"
        },
        {
            "bufferView" : 1,
            "componentType" : 5126,
            "count" : 1984,
            "type" : "VEC3"
        },
        {
            "bufferView" : 2,
            "componentType" : 5126,
            "count" : 1984,
            "type" : "VEC2"
        },
        {
            "bufferView" : 3,
            "componentType" : 5123,
            "count" : 3060,
            "type" : "SCALAR"
        },
        {
            "bufferView" : 4,
            "componentType" : 5126,
            "count" : 40,
            "max" : [
                1,
                -7.450580596923828e-09,
                1
            ],
            "min" : [
                -1,
                -0.19999998807907104,
                -1
            ],
            "type" : "VEC3"
        },
        {
            "bufferView" : 5,
            "componentType" : 5126,
            "count" : 40,
            "type" : "VEC3"
        },
        {
            "bufferView" : 6,
            "componentType" : 5126,
            "count" : 40,
            "type" : "VEC2"
        },
        {
            "bufferView" : 7,
            "componentType" : 5123,
            "count" : 60,
            "type" : "SCALAR"
        }
    ],
    "bufferViews" : [
        {
            "buffer" : 0,
            "byteLength" : 23808,
            "byteOffset" : 0
        },
        {
            "buffer" : 0,
            "byteLength" : 23808,
            "byteOffset" : 23808
        },
        {
            "buffer" : 0,
            "byteLength" : 15872,
            "byteOffset" : 47616
        },
        {
            "buffer" : 0,
            "byteLength" : 6120,
            "byteOffset" : 63488
        },
        {
            "buffer" : 0,
            "byteLength" : 480,
            "byteOffset" : 69608
        },
        {
            "buffer" : 0,
            "byteLength" : 480,
            "byteOffset" : 70088
        },
        {
            "buffer" : 0,
            "byteLength" : 320,
            "byteOffset" : 70568
        },
        {
            "buffer" : 0,
            "byteLength" : 120,
            "byteOffset" : 70888
        }
    ],
    "buffers" : [
        {
            "byteLength" : 71008,
            "uri" : "data:application/octet-stream;base64,"
        }
    ]
}
